# Blender v2.82 (sub 7) OBJ File: ''
# www.blender.org
mtllib ground.mtl
o Cube.001
v 10.000000 0.100000 -10.000000
v -10.000000 0.100000 -10.000000
v -10.000000 0.100000 10.000000
v 10.000000 0.100000 10.000000
v 10.000000 -0.100000 10.000000
v -10.000000 -0.100000 10.000000
v -10.000000 -0.100000 -10.000000
v 10.000000 -0.100000 -10.000000
vt 0.009051 0.009051
vt 0.987042 0.009051
vt 0.987042 0.987042
vt 0.009051 0.987042
vt 0.375000 0.750000
vt 0.625000 0.750000
vt 0.625000 1.000000
vt 0.375000 1.000000
vt 0.375000 0.000000
vt 0.625000 0.000000
vt 0.625000 0.250000
vt 0.375000 0.250000
vt 0.007231 0.007231
vt 0.984957 0.007231
vt 0.984957 0.984957
vt 0.007231 0.984957
vt 0.375000 0.500000
vt 0.625000 0.500000
vn 0.0000 1.0000 0.0000
vn 0.0000 0.0000 1.0000
vn -1.0000 0.0000 0.0000
vn 0.0000 -1.0000 -0.0000
vn 1.0000 0.0000 0.0000
vn 0.0000 0.0000 -1.0000
usemtl Material.001
s 1
f 1/1/1 2/2/1 3/3/1 4/4/1
f 5/5/2 4/6/2 3/7/2 6/8/2
f 6/9/3 3/10/3 2/11/3 7/12/3
f 7/13/4 8/14/4 5/15/4 6/16/4
f 8/17/5 1/18/5 4/6/5 5/5/5
f 7/12/6 2/11/6 1/18/6 8/17/6
